PathFileType	4	(X/Y/Z)	/Users/itak/Documents/Research/Walk-IL/dataset/trc/00344_00011.trc
DataRate	CameraRate	NumFrames	NumMarkers	Units	OrigDataRate	OrigDataStartFrame	OrigNumFrames
100.000000	100.000000	4	53	mm	100.000000	344	688
Frame#	Time	RPSI			LPSI			L3			STRN			T10			C7			CLAV			RBAK			LBAK			LSHO			LUPA			LAEL			LAOL			LWTS			LWPS			LFRA			LIFD			LHPS			LHTS			RSHO			RUPA			RAEL			RAOL			RWTS			RWPS			RFRA			RIFD			RHTS			RHPS			RBHD			LFHD			RFHD			LBHD			LHIP			RHIP			RASI			LASI			LKNE			LTHI			LANK			LTIP			LTOE			LMT1			LMT5			LHEE			RKNE			RTHI			RANK			RTIP			RTOE			RMT1			RMT5			RHEE			
		X1	Y1	Z1	X2	Y2	Z2	X3	Y3	Z3	X4	Y4	Z4	X5	Y5	Z5	X6	Y6	Z6	X7	Y7	Z7	X8	Y8	Z8	X9	Y9	Z9	X10	Y10	Z10	X11	Y11	Z11	X12	Y12	Z12	X13	Y13	Z13	X14	Y14	Z14	X15	Y15	Z15	X16	Y16	Z16	X17	Y17	Z17	X18	Y18	Z18	X19	Y19	Z19	X20	Y20	Z20	X21	Y21	Z21	X22	Y22	Z22	X23	Y23	Z23	X24	Y24	Z24	X25	Y25	Z25	X26	Y26	Z26	X27	Y27	Z27	X28	Y28	Z28	X29	Y29	Z29	X30	Y30	Z30	X31	Y31	Z31	X32	Y32	Z32	X33	Y33	Z33	X34	Y34	Z34	X35	Y35	Z35	X36	Y36	Z36	X37	Y37	Z37	X38	Y38	Z38	X39	Y39	Z39	X40	Y40	Z40	X41	Y41	Z41	X42	Y42	Z42	X43	Y43	Z43	X44	Y44	Z44	X45	Y45	Z45	X46	Y46	Z46	X47	Y47	Z47	X48	Y48	Z48	X49	Y49	Z49	X50	Y50	Z50	X51	Y51	Z51	X52	Y52	Z52	X53	Y53	Z53	

345	3.44	400.7002563476562	964.0917358398438	-547.8788452148438	393.591796875	949.5272216796875	-418.6770629882812	399.5922546386719	1016.261474609375	-485.7071533203125	168.2359619140625	1202.317993164062	-485.3868103027344	409.7455749511719	1136.6240234375	-472.2149353027344	364.3236083984375	1383.8896484375	-451.6956176757812	208.8174133300781	1328.187866210938	-473.227294921875	419.0552368164062	1248.044921875	-519.2229614257812	368.215087890625	1343.341796875	-351.3401184082031	278.2901916503906	1356.957397460938	-301.6607666015625	296.9893798828125	1236.287841796875	-236.8553619384766	296.1472778320312	1033.023681640625	-224.4096374511719	357.464111328125	1024.147827148438	-282.6353454589844	234.1936645507812	776.1934204101562	-253.1621398925781	277.9337158203125	778.2213134765625	-199.2918701171875	294.13232421875	929.446533203125	-212.794921875	260.6033325195312	618.5343627929688	-246.9495849609375	293.8533935546875	710.716796875	-197.8698577880859	237.3616027832031	698.7766723632812	-229.4551086425781	323.4758911132812	1377.26318359375	-618.2884521484375	344.9037780761719	1317.6533203125	-682.2744750976562	365.1999816894531	1060.439331054688	-753.390869140625	377.7188110351562	1039.5146484375	-660.8807373046875	266.3727416992188	826.5178833007812	-783.706298828125	321.2487487792969	824.6896362304688	-836.6881103515625	349.7955322265625	995.725830078125	-780.5762939453125	275.4496459960938	655.6275024414062	-811.7742919921875	253.3129425048828	726.6563110351562	-817.939208984375	315.0187377929688	738.5347900390625	-848.9857788085938	300.6750183105469	1597.14404296875	-533.5088500976562	141.8431243896484	1587.619995117188	-398.2554626464844	140.7049407958984	1596.203125	-499.3262329101562	328.4678649902344	1582.429809570312	-392.1466674804688	300.5983276367188	883.858642578125	-324.8880920410156	324.8569946289062	924.225341796875	-664.80712890625	219.0917205810547	949.60205078125	-624.41455078125	184.9537963867188	918.9232788085938	-389.7292785644531	187.7147369384766	440.2645568847656	-378.0704040527344	202.7487487792969	567.1849365234375	-361.6571044921875	540.0989379882812	213.9289093017578	-361.0786743164062	364.3888549804688	304.6887512207031	-359.0758666992188	467.8463745117188	24.24372673034668	-418.7193298339844	515.7761840820312	76.35491180419922	-452.1479187011719	487.2066345214844	100.1970825195312	-345.2376098632812	569.8306274414062	235.65771484375	-426.6923828125	208.0620574951172	465.907958984375	-691.5240478515625	226.4546508789062	728.669189453125	-697.0816650390625	257.1843872070312	41.21004104614258	-694.1404418945312	192.7420196533203	347.1090698242188	-691.5576782226562	58.72255325317383	43.92981719970703	-665.9039306640625	106.4447250366211	42.03952789306641	-617.424560546875	160.3389434814453	27.8097095489502	-722.9035034179688	297.955078125	47.80088806152344	-638.5370483398438	
346	3.45	393.592529296875	965.3602905273438	-552.902587890625	388.643310546875	950.5996704101562	-423.6366271972656	393.7966613769531	1017.9482421875	-490.8550109863281	161.3272857666016	1203.305297851562	-485.8415222167969	402.9136352539062	1138.243286132812	-477.7931213378906	357.4954833984375	1385.403076171875	-456.3658752441406	201.7599334716797	1329.277954101562	-474.6590576171875	411.2216186523438	1249.739624023438	-525.1152954101562	363.4917297363281	1344.865112304688	-356.1541442871094	274.6611328125	1358.350830078125	-304.5486450195312	295.6646423339844	1238.072021484375	-239.8080749511719	297.1061401367188	1034.87744140625	-226.5554504394531	356.89990234375	1026.305419921875	-286.311279296875	237.1216735839844	777.2528686523438	-252.9344177246094	282.1033935546875	779.9619140625	-199.9314727783203	296.4878540039062	931.3436279296875	-214.3500518798828	265.866943359375	619.9417114257812	-247.0905151367188	298.9129638671875	712.68212890625	-198.7617340087891	241.9473571777344	699.8501586914062	-229.1943054199219	313.1815490722656	1378.667236328125	-622.0444946289062	333.1869506835938	1319.2177734375	-686.6453857421875	351.2443542480469	1062.363647460938	-759.6947021484375	366.5944519042969	1040.956787109375	-667.7467651367188	251.4478149414062	828.763671875	-788.0103759765625	304.4083251953125	827.0545043945312	-842.6654663085938	334.9197692871094	997.7384643554688	-786.6573486328125	258.2383422851562	658.124267578125	-817.540283203125	236.9205932617188	729.1917114257812	-822.545166015625	297.4788513183594	741.04541015625	-855.33154296875	292.4296569824219	1598.188110351562	-536.9989624023438	135.7453155517578	1589.068237304688	-399.2268981933594	132.9861602783203	1597.494506835938	-500.2900085449219	322.6396484375	1583.73876953125	-396.0494079589844	296.7203979492188	885.3093872070312	-328.4137878417969	316.0957336425781	925.052734375	-668.6434936523438	210.9462738037109	950.2476196289062	-626.6993408203125	180.2380828857422	920.5241088867188	-391.4043579101562	173.0308227539062	443.9111938476562	-379.4760131835938	192.0556793212891	569.9592895507812	-363.12646484375	525.794677734375	218.2287445068359	-371.1947326660156	349.7519226074219	308.4784240722656	-364.7793884277344	451.5990295410156	26.53546905517578	-425.3144226074219	498.3104858398438	79.91710662841797	-460.7413940429688	473.5776062011719	104.2907028198242	-353.1156921386719	553.6804809570312	239.5123443603516	-437.7756958007812	206.0455474853516	465.6289367675781	-692.6788330078125	220.2112731933594	728.5322265625	-699.2158203125	257.1424560546875	41.22890472412109	-694.0972900390625	191.472900390625	346.7590637207031	-692.5970458984375	58.76529312133789	43.81058883666992	-665.762451171875	106.3943252563477	41.92187881469727	-617.2975463867188	160.3203735351562	27.81797981262207	-722.8597412109375	297.847412109375	47.7770881652832	-638.4613037109375	
347	3.46	386.5644836425781	966.58203125	-557.609375	383.5640563964844	951.8052368164062	-428.3095397949219	387.9783630371094	1019.630065917969	-495.7625732421875	154.5053405761719	1204.34521484375	-486.1981506347656	396.1811828613281	1139.869018554688	-483.1762084960938	350.6807250976562	1386.883911132812	-460.8736572265625	194.8910217285156	1330.394775390625	-475.9198608398438	403.4086608886719	1251.440063476562	-530.8405151367188	358.7679443359375	1346.373657226562	-360.8498840332031	271.0940856933594	1359.779907226562	-307.3731384277344	294.345458984375	1239.963012695312	-242.6915893554688	298.2314147949219	1036.90185546875	-228.6792144775391	356.4732055664062	1028.602172851562	-289.8663024902344	239.6288604736328	778.6611938476562	-252.8158416748047	286.0654907226562	781.7823486328125	-200.7256011962891	298.8267822265625	933.3439331054688	-215.9357452392578	270.3993225097656	621.5802001953125	-247.7142944335938	303.5557250976562	714.6707763671875	-200.0227508544922	246.0844421386719	701.1901245117188	-229.2052307128906	302.9666442871094	1380.101684570312	-625.5697021484375	321.5015258789062	1320.81591796875	-690.7566528320312	337.0455322265625	1064.345458984375	-765.7390747070312	355.2471008300781	1042.428833007812	-674.4359130859375	236.4403686523438	831.0320434570312	-792.07763671875	287.3669738769531	829.5477294921875	-848.39697265625	319.7920837402344	999.8555297851562	-792.4860229492188	241.2425537109375	660.6625366210938	-823.0690307617188	220.5860595703125	731.7505493164062	-826.8881225585938	279.785400390625	743.6832275390625	-861.4500732421875	284.1636962890625	1599.199340820312	-540.324951171875	129.6744842529297	1590.483520507812	-400.0557556152344	125.2901916503906	1598.737182617188	-501.0889282226562	316.7541809082031	1585.039794921875	-399.835693359375	292.6414794921875	887.0254516601562	-331.6683959960938	307.5570068359375	925.7501220703125	-672.2178344726562	203.0081634521484	950.9148559570312	-628.9578247070312	175.5062561035156	922.2706298828125	-393.1295776367188	158.5715637207031	447.6877746582031	-380.5736999511719	181.433837890625	573.0565795898438	-364.2669677734375	510.9866943359375	220.9137878417969	-381.0859985351562	334.9627685546875	311.6986389160156	-370.2792053222656	433.0723266601562	29.33649253845215	-433.0672912597656	479.3190612792969	82.87562561035156	-469.9798278808594	458.2603759765625	107.3878326416016	-361.6502685546875	537.2756958007812	241.9856719970703	-448.42822265625	204.0117034912109	465.4528198242188	-693.6411743164062	213.8731231689453	728.4212036132812	-701.0819091796875	257.0870971679688	41.26385879516602	-694.0260009765625	190.2155151367188	346.431396484375	-693.4993286132812	58.78995895385742	43.71091842651367	-665.6275634765625	106.3401489257812	41.80471801757812	-617.1656494140625	160.297607421875	27.83893966674805	-722.8087768554688	297.6536560058594	47.64040756225586	-638.3074951171875	
348	3.47	379.615966796875	967.75390625	-561.9815063476562	378.3411560058594	953.1290893554688	-432.6644897460938	382.0938110351562	1021.277160644531	-500.41064453125	147.7614593505859	1205.444580078125	-486.4981384277344	389.5457458496094	1141.484619140625	-488.362060546875	343.8781433105469	1388.317749023438	-465.2146911621094	188.2176971435547	1331.542602539062	-477.0290222167969	395.6007080078125	1253.111450195312	-536.3880004882812	354.0313110351562	1347.856567382812	-365.4207763671875	267.5662841796875	1361.240234375	-310.1454467773438	293.0088195800781	1241.947998046875	-245.5286865234375	299.4651489257812	1039.079467773438	-230.8217010498047	356.1510009765625	1031.033203125	-293.336181640625	241.7743835449219	780.3417358398438	-252.8256683349609	289.7776184082031	783.6771240234375	-201.6849060058594	301.0986022949219	935.438720703125	-217.5865325927734	274.2005615234375	623.406494140625	-248.7438659667969	307.765380859375	716.6724243164062	-201.6139221191406	249.7639770507812	702.759765625	-229.4651489257812	292.8640747070312	1381.565185546875	-628.8684692382812	309.8820190429688	1322.4443359375	-694.606689453125	322.6452026367188	1066.38232421875	-771.4961547851562	343.6785888671875	1043.94921875	-680.935791015625	221.3240203857422	833.3268432617188	-795.90576171875	270.1401672363281	832.165283203125	-853.860595703125	304.4514770507812	1002.0771484375	-798.0357055664062	224.3751220703125	663.25146484375	-828.3418579101562	204.2826843261719	734.330322265625	-830.96044921875	261.94873046875	746.4392700195312	-867.3126831054688	275.8772888183594	1600.182861328125	-543.4826049804688	123.6308059692383	1591.845458984375	-400.7469177246094	117.618278503418	1599.91162109375	-501.7249450683594	310.7864379882812	1586.332641601562	-403.5094604492188	288.3309631347656	888.9768676757812	-334.6461486816406	299.2737731933594	926.3348388671875	-675.5269165039062	195.2535095214844	951.6064453125	-631.21484375	170.7305297851562	924.1443481445312	-394.9253234863281	144.3823089599609	451.5606384277344	-381.3392944335938	170.8560638427734	576.4368896484375	-365.0609436035156	495.6396789550781	221.9983673095703	-390.6642761230469	320.0327758789062	314.3059997558594	-375.5208129882812	412.4586181640625	32.34733963012695	-441.8090515136719	458.9247741699219	85.23340606689453	-479.7254638671875	441.3309936523438	109.4157409667969	-370.7064819335938	520.6013793945312	243.0892486572266	-458.5731201171875	201.9075469970703	465.35498046875	-694.4522094726562	207.4397277832031	728.3177490234375	-702.7045288085938	257.0206604003906	41.31150436401367	-693.9337768554688	188.9048156738281	346.1105651855469	-694.2538452148438	58.79690170288086	43.62557983398438	-665.499755859375	106.2861022949219	41.68828964233398	-617.0286865234375	160.2704010009766	27.87295341491699	-722.7523193359375	297.3663635253906	47.38045120239258	-638.0805053710938	
